<svg width="100" height="100" viewBox="0 0 100 100" fill="none" xmlns="http://www.w3.org/2000/svg">
<rect width="100" height="100" rx="20" fill="url(#paint0_linear_213_12)"/>
<path d="M56.1059 20C65.9917 20 73.2606 22.0105 77.9128 26.0316C82.6376 30.0527 85 35.3166 85 41.8234C85 44.0167 84.7092 46.4659 84.1277 49.171C82.7466 55.166 80.1661 60.43 76.3863 64.9628C72.6064 69.4226 67.9543 72.8953 62.4299 75.381C56.9782 77.7937 51.054 79 44.6573 79C34.5535 79 27.0665 76.9895 22.1963 72.9684C17.3988 68.8742 15 63.4641 15 56.7379C15 54.4715 15.2908 51.9492 15.8723 49.171C17.2534 43.4684 19.8702 38.4238 23.7227 34.0372C27.648 29.5775 32.4091 26.1413 38.0062 23.7286C43.676 21.2429 49.7092 20 56.1059 20ZM55.7788 29.7602C54.2523 29.7602 52.6168 31.1493 50.8723 33.9275C49.2004 36.6326 47.2015 41.7869 44.8754 49.3903C42.5493 56.9938 41.3863 62.3309 41.3863 65.4015C41.3863 67.0099 41.6407 68.1066 42.1495 68.6915C42.6584 69.2032 43.3489 69.4591 44.2212 69.4591C45.7477 69.6053 47.3105 68.2893 48.9097 65.5112C50.5815 62.733 52.6532 57.3228 55.1246 49.2807C57.378 42.189 58.5047 37.0347 58.5047 33.8178C58.5047 32.2825 58.2503 31.2224 57.7414 30.6375C57.3053 30.0527 56.6511 29.7602 55.7788 29.7602Z" fill="white"/>
<defs>
<linearGradient id="paint0_linear_213_12" x1="50" y1="0" x2="50" y2="100" gradientUnits="userSpaceOnUse">
<stop stop-color="#FF79DA"/>
<stop offset="1" stop-color="#9356DC"/>
</linearGradient>
</defs>
</svg>
