<svg width="163" height="29" viewBox="0 0 163 29" fill="none" xmlns="http://www.w3.org/2000/svg">
<path d="M11.3242 6.865C14.0442 6.865 16.0442 7.415 17.3242 8.515C18.6242 9.615 19.2742 11.055 19.2742 12.835C19.2742 13.435 19.1942 14.105 19.0342 14.845C18.6542 16.485 17.9442 17.925 16.9042 19.165C15.8642 20.385 14.5842 21.335 13.0642 22.015C11.5642 22.675 9.93416 23.005 8.17416 23.005C5.39416 23.005 3.33416 22.455 1.99416 21.355C0.67416 20.235 0.0141602 18.755 0.0141602 16.915C0.0141602 16.295 0.0941602 15.605 0.25416 14.845C0.63416 13.285 1.35416 11.905 2.41416 10.705C3.49416 9.485 4.80416 8.545 6.34416 7.885C7.90416 7.205 9.56416 6.865 11.3242 6.865ZM11.2342 9.535C10.8142 9.535 10.3642 9.915 9.88416 10.675C9.42416 11.415 8.87416 12.825 8.23416 14.905C7.59416 16.985 7.27416 18.445 7.27416 19.285C7.27416 19.725 7.34416 20.025 7.48416 20.185C7.62416 20.325 7.81416 20.395 8.05416 20.395C8.47416 20.435 8.90416 20.075 9.34416 19.315C9.80416 18.555 10.3742 17.075 11.0542 14.875C11.6742 12.935 11.9842 11.525 11.9842 10.645C11.9842 10.225 11.9142 9.935 11.7742 9.775C11.6542 9.615 11.4742 9.535 11.2342 9.535Z" fill="#101010"/>
<path d="M37.2057 18.595C37.1657 18.675 37.1457 18.795 37.1457 18.955C37.1457 19.095 37.1757 19.205 37.2357 19.285C37.3157 19.365 37.4157 19.405 37.5357 19.405C37.7757 19.405 37.9757 19.305 38.1357 19.105C38.3157 18.885 38.4357 18.775 38.4957 18.775C38.5957 18.775 38.6757 18.845 38.7357 18.985C38.7957 19.105 38.8257 19.255 38.8257 19.435C38.8457 20.015 38.6557 20.585 38.2557 21.145C37.8557 21.685 37.2657 22.135 36.4857 22.495C35.7257 22.835 34.8057 23.005 33.7257 23.005C32.4057 23.005 31.3557 22.705 30.5757 22.105C29.7957 21.485 29.3957 20.665 29.3757 19.645C29.3757 18.905 29.5557 18.075 29.9157 17.155L31.5657 12.835C31.6657 12.575 31.7157 12.365 31.7157 12.205C31.7157 11.945 31.6257 11.745 31.4457 11.605C31.2857 11.445 31.0857 11.365 30.8457 11.365C30.4657 11.365 30.0757 11.545 29.6757 11.905C29.2957 12.245 28.9857 12.805 28.7457 13.585V13.525L26.8557 19.615C26.7957 19.855 26.7657 20.065 26.7657 20.245C26.7657 20.505 26.8157 20.715 26.9157 20.875C27.0157 21.015 27.1557 21.155 27.3357 21.295C27.4757 21.435 27.5757 21.555 27.6357 21.655C27.6957 21.735 27.7057 21.845 27.6657 21.985C27.5657 22.245 27.3657 22.435 27.0657 22.555C26.7657 22.675 26.3057 22.735 25.6857 22.735H18.8457C18.3257 22.735 17.9457 22.655 17.7057 22.495C17.4657 22.315 17.3857 22.085 17.4657 21.805C17.5457 21.565 17.7557 21.355 18.0957 21.175C18.3957 21.015 18.6457 20.825 18.8457 20.605C19.0457 20.385 19.2157 20.035 19.3557 19.555L23.9157 4.585C23.9757 4.405 24.0057 4.255 24.0057 4.135C24.0057 3.915 23.9457 3.735 23.8257 3.595C23.7257 3.455 23.5857 3.315 23.4057 3.175C23.2057 3.015 23.0557 2.875 22.9557 2.755C22.8757 2.635 22.8657 2.475 22.9257 2.275C23.0457 1.815 23.6757 1.415 24.8157 1.075C25.9557 0.735002 27.1457 0.565002 28.3857 0.565002C29.5457 0.565002 30.3957 0.785003 30.9357 1.225C31.4957 1.665 31.7757 2.265 31.7757 3.025C31.7757 3.465 31.7057 3.895 31.5657 4.315L29.9457 9.595C30.7257 8.575 31.5457 7.865 32.4057 7.465C33.2857 7.065 34.2357 6.865 35.2557 6.865C36.4757 6.865 37.4557 7.235 38.1957 7.975C38.9557 8.715 39.3357 9.675 39.3357 10.855C39.3357 11.475 39.2357 12.085 39.0357 12.685L37.2057 18.595Z" fill="#101010"/>
<path d="M68.6446 18.595C68.6046 18.675 68.5845 18.795 68.5845 18.955C68.5845 19.095 68.6146 19.205 68.6746 19.285C68.7546 19.365 68.8546 19.405 68.9746 19.405C69.2146 19.405 69.4146 19.305 69.5746 19.105C69.7546 18.885 69.8746 18.775 69.9346 18.775C70.0346 18.775 70.1146 18.845 70.1746 18.985C70.2346 19.105 70.2645 19.255 70.2645 19.435C70.2846 20.015 70.0946 20.585 69.6945 21.145C69.2945 21.685 68.7046 22.135 67.9246 22.495C67.1646 22.835 66.2446 23.005 65.1646 23.005C63.8446 23.005 62.7946 22.705 62.0146 22.105C61.2346 21.485 60.8346 20.665 60.8146 19.645C60.8146 18.905 60.9945 18.075 61.3545 17.155L63.0046 12.835C63.1045 12.575 63.1546 12.365 63.1546 12.205C63.1546 11.945 63.0646 11.745 62.8846 11.605C62.7246 11.445 62.5246 11.365 62.2845 11.365C61.9445 11.365 61.5946 11.515 61.2346 11.815C60.8746 12.115 60.5546 12.585 60.2746 13.225L58.6246 18.595C58.5846 18.675 58.5646 18.795 58.5646 18.955C58.5646 19.095 58.5946 19.205 58.6546 19.285C58.7346 19.365 58.8346 19.405 58.9546 19.405C59.1946 19.405 59.3946 19.305 59.5546 19.105C59.7346 18.885 59.8545 18.775 59.9146 18.775C60.0145 18.775 60.0946 18.845 60.1546 18.985C60.2146 19.105 60.2446 19.255 60.2446 19.435C60.2646 20.015 60.0746 20.585 59.6746 21.145C59.2746 21.685 58.6846 22.135 57.9046 22.495C57.1446 22.835 56.2245 23.005 55.1446 23.005C53.8246 23.005 52.7746 22.705 51.9946 22.105C51.2146 21.485 50.8146 20.665 50.7946 19.645C50.7946 18.905 50.9746 18.075 51.3346 17.155L52.9846 12.835C53.0845 12.575 53.1346 12.365 53.1346 12.205C53.1346 11.945 53.0446 11.745 52.8646 11.605C52.7046 11.445 52.5046 11.365 52.2646 11.365C51.9246 11.365 51.5746 11.515 51.2146 11.815C50.8545 12.095 50.5546 12.555 50.3146 13.195L48.3346 19.615C48.2546 19.835 48.2146 20.045 48.2146 20.245C48.2146 20.485 48.2646 20.685 48.3646 20.845C48.4646 20.985 48.6045 21.135 48.7845 21.295C48.9245 21.415 49.0246 21.525 49.0846 21.625C49.1446 21.725 49.1546 21.845 49.1146 21.985C49.0345 22.245 48.8446 22.435 48.5446 22.555C48.2446 22.675 47.7746 22.735 47.1346 22.735H40.2946C39.7746 22.735 39.4046 22.655 39.1846 22.495C38.9445 22.315 38.8545 22.085 38.9146 21.805C38.9946 21.565 39.2046 21.355 39.5446 21.175C39.8446 21.015 40.0946 20.825 40.2946 20.605C40.4946 20.385 40.6646 20.035 40.8046 19.555L43.4746 10.885C43.5146 10.785 43.5345 10.645 43.5345 10.465C43.5345 10.245 43.4846 10.075 43.3846 9.955C43.3046 9.835 43.1646 9.685 42.9646 9.505C42.7645 9.345 42.6246 9.205 42.5446 9.085C42.4646 8.965 42.4545 8.805 42.5145 8.605C42.6345 8.145 43.2646 7.745 44.4046 7.405C45.5446 7.045 46.7346 6.865 47.9746 6.865C48.9546 6.865 49.7245 7.135 50.2845 7.675C50.8646 8.215 51.1446 8.955 51.1245 9.895C51.9445 8.755 52.8046 7.965 53.7046 7.525C54.6245 7.085 55.6146 6.865 56.6746 6.865C57.8346 6.865 58.7746 7.205 59.4946 7.885C60.2346 8.545 60.6446 9.415 60.7246 10.495C61.5846 9.135 62.5046 8.195 63.4846 7.675C64.4646 7.135 65.5346 6.865 66.6945 6.865C67.9146 6.865 68.8946 7.235 69.6346 7.975C70.3946 8.715 70.7746 9.675 70.7746 10.855C70.7746 11.475 70.6746 12.085 70.4746 12.685L68.6446 18.595Z" fill="#101010"/>
<path d="M87.1571 6.865C88.0371 6.865 88.7371 7.225 89.2571 7.945C89.7971 8.645 90.0671 9.605 90.0671 10.825C90.0671 11.885 89.8771 13.025 89.4971 14.245C88.7571 16.705 87.5671 19.025 85.9271 21.205C84.3071 23.385 82.4371 25.135 80.3171 26.455C78.2171 27.775 76.1171 28.435 74.0171 28.435C72.9771 28.435 72.0771 28.255 71.3171 27.895C70.5771 27.535 70.0171 27.055 69.6371 26.455C69.2371 25.855 69.0371 25.215 69.0371 24.535C69.0371 24.235 69.0871 23.905 69.1871 23.545C69.3671 22.985 69.6671 22.555 70.0871 22.255C70.5071 21.955 71.0071 21.805 71.5871 21.805C72.5071 21.805 73.2571 22.115 73.8371 22.735C74.4371 23.375 74.8171 24.245 74.9771 25.345C76.2571 25.285 77.4371 24.735 78.5171 23.695C77.4971 23.515 76.7371 23.175 76.2371 22.675C75.7571 22.155 75.4271 21.355 75.2471 20.275L74.0471 12.925C73.9871 12.545 73.8971 12.285 73.7771 12.145C73.6771 11.985 73.5371 11.905 73.3571 11.905C73.2171 11.905 73.0471 11.975 72.8471 12.115C72.6671 12.255 72.5371 12.325 72.4571 12.325C72.2971 12.325 72.2171 12.155 72.2171 11.815C72.2171 11.535 72.2671 11.235 72.3671 10.915C72.7271 9.775 73.3971 8.815 74.3771 8.035C75.3571 7.235 76.4971 6.835 77.7971 6.835C79.0771 6.835 80.0171 7.215 80.6171 7.975C81.2371 8.735 81.6371 9.905 81.8171 11.485L82.7171 18.085C82.7771 18.585 82.9571 18.835 83.2571 18.835C83.6171 18.835 84.0371 18.515 84.5171 17.875C84.9971 17.215 85.4671 16.285 85.9271 15.085C85.3271 14.545 84.8671 13.925 84.5471 13.225C84.2271 12.525 84.0671 11.775 84.0671 10.975C84.0671 10.355 84.1471 9.795 84.3071 9.295C84.5471 8.495 84.9171 7.895 85.4171 7.495C85.9371 7.075 86.5171 6.865 87.1571 6.865Z" fill="#101010"/>
<path d="M102.101 0.565002C104.241 0.565002 105.841 0.895002 106.901 1.555C107.981 2.195 108.521 2.985 108.521 3.925C108.521 4.685 108.201 5.275 107.561 5.695C106.941 6.095 106.121 6.295 105.101 6.295C104.161 6.295 103.431 6.065 102.911 5.605C102.391 5.145 102.131 4.575 102.131 3.895C102.131 3.475 102.261 3.035 102.521 2.575C101.921 2.575 101.421 2.725 101.021 3.025C100.621 3.305 100.311 3.795 100.091 4.495C99.9706 4.935 99.9106 5.345 99.9106 5.725C99.9106 6.205 99.9906 6.585 100.151 6.865C100.331 7.125 100.581 7.255 100.901 7.255H102.671C103.711 7.255 104.231 7.575 104.231 8.215C104.231 8.295 104.211 8.415 104.171 8.575C104.051 9.015 103.801 9.345 103.421 9.565C103.061 9.785 102.511 9.895 101.771 9.895H100.871L97.9006 19.615C97.8406 19.855 97.8106 20.065 97.8106 20.245C97.8106 20.505 97.8606 20.715 97.9606 20.875C98.0606 21.015 98.2006 21.155 98.3806 21.295C98.5206 21.435 98.6206 21.555 98.6806 21.655C98.7406 21.735 98.7506 21.845 98.7106 21.985C98.6106 22.245 98.4106 22.435 98.1106 22.555C97.8106 22.675 97.3506 22.735 96.7306 22.735H89.8906C89.3707 22.735 88.9906 22.655 88.7506 22.495C88.5106 22.315 88.4306 22.085 88.5106 21.805C88.5906 21.565 88.8007 21.355 89.1406 21.175C89.4407 21.015 89.6907 20.825 89.8906 20.605C90.0906 20.385 90.2606 20.035 90.4006 19.555L92.7406 11.875C92.8406 11.575 92.8906 11.265 92.8906 10.945C92.8906 10.545 92.8006 10.235 92.6206 10.015C92.4606 9.775 92.2106 9.515 91.8706 9.235C91.6506 9.055 91.4806 8.905 91.3606 8.785C91.2606 8.645 91.2106 8.485 91.2106 8.305C91.1907 7.925 91.3206 7.655 91.6006 7.495C91.9007 7.335 92.4606 7.255 93.2806 7.255H94.0306C93.8906 6.755 93.8206 6.255 93.8206 5.755C93.8206 5.255 93.9106 4.735 94.0906 4.195C94.4706 3.175 95.2806 2.315 96.5206 1.615C97.7806 0.915002 99.6406 0.565002 102.101 0.565002Z" fill="#101010"/>
<path d="M113.951 6.865C116.671 6.865 118.671 7.415 119.951 8.515C121.251 9.615 121.901 11.055 121.901 12.835C121.901 13.435 121.821 14.105 121.661 14.845C121.281 16.485 120.571 17.925 119.531 19.165C118.491 20.385 117.211 21.335 115.691 22.015C114.191 22.675 112.561 23.005 110.801 23.005C108.021 23.005 105.961 22.455 104.621 21.355C103.301 20.235 102.641 18.755 102.641 16.915C102.641 16.295 102.721 15.605 102.881 14.845C103.261 13.285 103.981 11.905 105.041 10.705C106.121 9.485 107.431 8.545 108.971 7.885C110.531 7.205 112.191 6.865 113.951 6.865ZM113.861 9.535C113.441 9.535 112.991 9.915 112.511 10.675C112.051 11.415 111.501 12.825 110.861 14.905C110.221 16.985 109.901 18.445 109.901 19.285C109.901 19.725 109.971 20.025 110.111 20.185C110.251 20.325 110.441 20.395 110.681 20.395C111.101 20.435 111.531 20.075 111.971 19.315C112.431 18.555 113.001 17.075 113.681 14.875C114.301 12.935 114.611 11.525 114.611 10.645C114.611 10.225 114.541 9.935 114.401 9.775C114.281 9.615 114.101 9.535 113.861 9.535Z" fill="#101010"/>
<path d="M133.639 6.865C136.359 6.865 138.359 7.415 139.639 8.515C140.939 9.615 141.589 11.055 141.589 12.835C141.589 13.435 141.509 14.105 141.349 14.845C140.969 16.485 140.259 17.925 139.219 19.165C138.179 20.385 136.899 21.335 135.379 22.015C133.879 22.675 132.249 23.005 130.489 23.005C127.709 23.005 125.649 22.455 124.309 21.355C122.989 20.235 122.329 18.755 122.329 16.915C122.329 16.295 122.409 15.605 122.569 14.845C122.949 13.285 123.669 11.905 124.729 10.705C125.809 9.485 127.119 8.545 128.659 7.885C130.219 7.205 131.879 6.865 133.639 6.865ZM133.549 9.535C133.129 9.535 132.679 9.915 132.199 10.675C131.739 11.415 131.189 12.825 130.549 14.905C129.909 16.985 129.589 18.445 129.589 19.285C129.589 19.725 129.659 20.025 129.799 20.185C129.939 20.325 130.129 20.395 130.369 20.395C130.789 20.435 131.219 20.075 131.659 19.315C132.119 18.555 132.689 17.075 133.369 14.875C133.989 12.935 134.299 11.525 134.299 10.645C134.299 10.225 134.229 9.935 134.089 9.775C133.969 9.615 133.789 9.535 133.549 9.535Z" fill="#101010"/>
<path d="M158.486 18.415C158.446 18.575 158.426 18.685 158.426 18.745C158.426 18.885 158.466 18.995 158.546 19.075C158.626 19.155 158.726 19.195 158.846 19.195C159.086 19.195 159.286 19.095 159.446 18.895C159.626 18.675 159.746 18.565 159.806 18.565C159.906 18.565 159.986 18.635 160.046 18.775C160.106 18.915 160.136 19.075 160.136 19.255C160.156 19.795 159.946 20.345 159.506 20.905C159.086 21.465 158.516 21.925 157.796 22.285C157.076 22.645 156.296 22.825 155.456 22.825C154.456 22.825 153.586 22.635 152.846 22.255C152.106 21.875 151.596 21.375 151.316 20.755C150.776 21.455 150.156 21.975 149.456 22.315C148.756 22.655 148.016 22.825 147.236 22.825C146.316 22.825 145.456 22.595 144.656 22.135C143.876 21.675 143.246 21.025 142.766 20.185C142.306 19.325 142.076 18.355 142.076 17.275C142.076 15.455 142.416 13.745 143.096 12.145C143.796 10.525 144.766 9.225 146.006 8.245C147.246 7.245 148.656 6.745 150.236 6.745C151.096 6.745 151.826 6.845 152.426 7.045C153.046 7.245 153.606 7.545 154.106 7.945L155.126 4.585C155.186 4.405 155.216 4.255 155.216 4.135C155.216 3.915 155.156 3.735 155.036 3.595C154.936 3.455 154.796 3.315 154.616 3.175C154.416 3.015 154.266 2.875 154.166 2.755C154.086 2.635 154.076 2.475 154.136 2.275C154.256 1.815 154.886 1.415 156.026 1.075C157.166 0.735002 158.356 0.565002 159.596 0.565002C160.756 0.565002 161.606 0.785003 162.146 1.225C162.706 1.665 162.986 2.265 162.986 3.025C162.986 3.465 162.916 3.895 162.776 4.315L158.486 18.415ZM153.476 9.985C153.156 9.705 152.806 9.565 152.426 9.565C151.846 9.565 151.276 9.995 150.716 10.855C150.156 11.715 149.706 12.755 149.366 13.975C149.026 15.195 148.866 16.295 148.886 17.275C148.886 18.375 149.246 18.925 149.966 18.925C150.226 18.925 150.446 18.825 150.626 18.625C150.806 18.405 150.976 18.055 151.136 17.575L153.476 9.985Z" fill="#101010"/>
</svg>
